Coordinates
version=1
nRows=26
nColumns=24
inDegrees=yes

Units are S.I. units (second, meters, Newtons, ...)
Angles are in degrees.

endheader
time	pelvis_tilt	pelvis_list	pelvis_rotation	pelvis_tx	pelvis_ty	pelvis_tz	hip_flexion_r	hip_adduction_r	hip_rotation_r	knee_angle_r	ankle_angle_r	subtalar_angle_r	mtp_angle_r	hip_flexion_l	hip_adduction_l	hip_rotation_l	knee_angle_l	ankle_angle_l	subtalar_angle_l	mtp_angle_l	lumbar_extension	lumbar_bending	lumbar_rotation
      3.65500000	    -13.49528829	      9.45824871	     -1.39115626	     -0.86583005	     -0.04120926	     -0.25327660	     14.96886224	    -14.20434533	     -7.02197755	    -58.32289189	    -24.41015995	    -20.57398988	     11.92276851	     31.99224656	     10.10389995	     -7.28292330	    -23.31740229	     -2.06164017	    -14.85761152	      0.08100029	      9.80970053	    -10.35661541	      3.10821001
      3.66000000	    -13.44011346	      9.37066233	     -1.36786774	     -0.85821724	     -0.03980121	     -0.25379772	     15.99043009	    -14.04030148	     -6.84213192	    -59.35735830	    -23.45272787	    -20.82188726	     11.96856568	     31.24410693	     10.12897326	     -7.14448538	    -23.02132734	     -1.62710584	    -14.64840352	      0.27196887	      9.70611051	    -10.25704023	      2.96254649
      3.66500000	    -13.37207161	      9.23825455	     -1.37348697	     -0.85058958	     -0.03833449	     -0.25430428	     16.98124137	    -13.82594180	     -6.68183442	    -60.26120512	    -22.47426355	    -20.85214613	     12.16605889	     30.46829572	     10.10329939	     -6.98301247	    -22.70342423	     -1.20680598	    -14.48689419	      0.42977430	      9.60157257	    -10.09817875	      2.83810703
      3.67000000	    -13.30065036	      9.08225870	     -1.38872020	     -0.84309555	     -0.03685479	     -0.25478778	     17.96630776	    -13.58153517	     -6.52779888	    -61.06803571	    -21.43911213	    -20.64474505	     12.54802950	     29.70574404	     10.04576301	     -6.82905794	    -22.39716202	     -0.84915775	    -14.33764854	      0.55165993	      9.47015954	     -9.91167327	      2.71316806
      3.67500000	    -13.23130493	      8.94142809	     -1.41394901	     -0.83556523	     -0.03540344	     -0.25532293	     18.94192544	    -13.37306449	     -6.39448664	    -61.77315328	    -20.39712678	    -20.20480786	     13.23288323	     28.92783699	     10.01007490	     -6.65038937	    -22.05821752	     -0.49541051	    -14.23311736	      0.63208881	      9.35645535	     -9.72844307	      2.60443867
      3.68000000	    -13.14691523	      8.76269922	     -1.43352668	     -0.82800233	     -0.03387062	     -0.25594347	     19.82368553	    -13.12580641	     -6.25229835	    -62.20372162	    -19.96653150	    -20.02576398	     16.89362992	     28.10928036	      9.96355541	     -6.38577332	    -21.68180297	     -0.17907094	    -14.24231878	      0.31235499	      9.23552660	     -9.49309512	      2.47620019
      3.68500000	    -13.07129935	      8.54992184	     -1.47670488	     -0.82052787	     -0.03240247	     -0.25642756	     20.74546205	    -12.82534256	     -6.15414817	    -62.68598748	    -18.88171098	    -19.26371239	     17.54251857	     27.31499200	      9.84230081	     -6.18868095	    -21.32707041	      0.18383621	    -14.10343671	      0.35686188	      9.11640085	     -9.22732592	      2.39658960
      3.69000000	    -12.98205614	      8.33777333	     -1.49622927	     -0.81305721	     -0.03089679	     -0.25708732	     21.58596345	    -12.54857632	     -6.05675148	    -62.92407582	    -18.33819302	    -18.76290307	     21.04383970	     26.48427213	      9.76749087	     -5.88589301	    -20.93217106	      0.51552699	    -14.12678055	     -0.23262547	      8.98118321	     -8.94664878	      2.28227379
      3.69500000	    -12.89242832	      8.16009224	     -1.57818127	     -0.80564553	     -0.02946823	     -0.25756465	     22.47117672	    -12.27187076	     -5.93454698	    -63.20820972	    -17.30860597	    -17.88674924	     22.04193548	     25.64880246	      9.67729441	     -5.72144623	    -20.49326545	      0.75005138	    -14.15837447	     -0.34286503	      8.85254458	     -8.70075984	      2.24453520
      3.70000000	    -12.82458251	      7.90493295	     -1.54545306	     -0.79820193	     -0.02808597	     -0.25815353	     23.29378229	    -11.95468494	     -5.97503547	    -63.36761203	    -16.27542034	    -16.98194331	     22.87472854	     24.83829148	      9.54100648	     -5.47704512	    -20.08862998	      1.09465894	    -14.00090028	     -0.35551493	      8.73342192	     -8.39532731	      2.07534383
      3.70500000	    -12.68486368	      7.75177775	     -1.64394244	     -0.79079377	     -0.02662968	     -0.25870972	     24.05945396	    -11.70006185	     -5.83082266	    -63.37173070	    -15.53387181	    -16.23894477	     25.45238847	     23.90601845	      9.49770652	     -5.27771114	    -19.55092030	      1.21227422	    -14.23502276	     -0.88956268	      8.55782819	     -8.15856689	      2.05956699
      3.71000000	    -12.65150802	      7.43776376	     -1.54804440	     -0.78344097	     -0.02538010	     -0.25929481	     24.84770768	    -11.32733552	     -5.98034038	    -63.33099401	    -14.56608349	    -15.46157478	     26.20409113	     23.14919905	      9.29385743	     -5.06148207	    -19.17718080	      1.64190932	    -13.89557230	     -0.84436258	      8.45310797	     -7.81152969	      1.81969356
      3.71500000	    -12.55143078	      7.21135715	     -1.54148990	     -0.77607128	     -0.02410544	     -0.25984882	     25.57682870	    -11.01665814	     -6.00606161	    -63.21035282	    -13.59184308	    -14.63321675	     27.17358506	     22.27858751	      9.17006704	     -4.89246456	    -18.68591040	      1.87793531	    -13.82861102	     -0.92554157	      8.29932252	     -7.52937100	      1.70088141
      3.72000000	    -12.44884421	      6.93984300	     -1.51944621	     -0.76879551	     -0.02282419	     -0.26047641	     26.24428447	    -10.65571701	     -6.04327985	    -62.84214987	    -13.23081127	    -14.39640810	     30.73413987	     21.41100537	      9.01322352	     -4.67449120	    -18.20504760	      2.16180214	    -13.78567210	     -1.48285694	      8.11920704	     -7.19030335	      1.51713555
      3.72500000	    -12.38781013	      6.69048844	     -1.49071005	     -0.76147191	     -0.02172039	     -0.26097559	     26.96523819	    -10.30583018	     -6.11655070	    -62.56113930	    -12.31416202	    -13.73854834	     31.10258700	     20.59811624	      8.84591418	     -4.57827773	    -17.73097856	      2.41905103	    -13.62804353	     -1.44250055	      7.99954014	     -6.89654510	      1.38060450
      3.73000000	    -12.31055837	      6.42768062	     -1.45144969	     -0.75419814	     -0.02064683	     -0.26147613	     27.63844458	     -9.94020067	     -6.20787929	    -62.18195554	    -11.49688580	    -13.20355940	     31.49392381	     19.76739346	      8.66837664	     -4.45081597	    -17.24589993	      2.62016078	    -13.52433802	     -1.42789756	      7.85066404	     -6.58888594	      1.19146548
      3.73500000	    -12.17826268	      6.20772467	     -1.40391676	     -0.74689737	     -0.01962306	     -0.26200777	     28.22591105	     -9.63695664	     -6.30964691	    -61.71718009	    -10.75728035	    -12.77063849	     32.11355827	     18.85598339	      8.54566163	     -4.25401527	    -16.72664837	      2.83634015	    -13.42951755	     -1.43911772	      7.64783196	     -6.32800796	      1.04631718
      3.74000000	    -12.11612266	      5.93541237	     -1.31371537	     -0.73959542	     -0.01872030	     -0.26258671	     28.84353057	     -9.29599921	     -6.48636561	    -61.15626010	    -10.10570996	    -12.45364341	     32.55439942	     18.05065851	      8.36686448	     -4.12261036	    -16.25568324	      3.04648659	    -13.32489227	     -1.44533571	      7.51822486	     -6.01338951	      0.85752354
      3.74500000	    -12.05241373	      5.67625210	     -1.24316596	     -0.73236055	     -0.01789502	     -0.26309059	     29.45429330	     -8.94393198	     -6.61678715	    -60.53049123	     -9.55678163	    -12.22225988	     32.88810399	     17.24867484	      8.18916815	     -3.97324710	    -15.78443060	      3.23023235	    -13.24376896	     -1.46506939	      7.37572360	     -5.71334063	      0.63723052
      3.75000000	    -11.93833582	      5.44351656	     -1.15378536	     -0.72510363	     -0.01712068	     -0.26362023	     29.98003733	     -8.64675106	     -6.78570136	    -59.82602162	     -9.08403321	    -12.08523436	     33.30822130	     16.37844743	      8.04690382	     -3.75477366	    -15.29537836	      3.44272902	    -13.15066129	     -1.52779375	      7.18423370	     -5.44741012	      0.45927599
      3.75500000	    -11.96688562	      5.21060493	     -1.09346191	     -0.71788583	     -0.01660409	     -0.26409342	     30.66948466	     -8.31904456	     -6.91395353	    -59.08414721	     -8.70748108	    -12.02931083	     33.42141043	     15.69531000	      7.88227838	     -3.64760848	    -14.84354378	      3.62079829	    -13.12809594	     -1.54794462	      7.14890213	     -5.17019827	      0.32116456
      3.76000000	    -11.84607392	      4.96863324	     -0.92649445	     -0.71064665	     -0.01596343	     -0.26468338	     31.11304277	     -8.06167295	     -7.16522885	    -58.22879086	     -8.31591779	    -11.94292788	     33.60119168	     14.84432944	      7.73486343	     -3.44107000	    -14.39595641	      3.82504416	    -12.98417134	     -1.60565356	      6.93533876	     -4.90493768	      0.01780191
      3.76500000	    -11.78129381	      4.75229271	     -0.81157645	     -0.70343407	     -0.01548935	     -0.26517742	     31.62618741	     -7.79399479	     -7.34563422	    -57.32661327	     -8.04729140	    -11.94317424	     33.69706200	     14.05753243	      7.59209835	     -3.28268446	    -13.94352452	      4.02249328	    -12.88576412	     -1.68707302	      6.78858650	     -4.65814530	     -0.20488232
      3.77000000	    -11.81658689	      4.57360134	     -0.72959872	     -0.69623886	     -0.01524980	     -0.26561433	     32.25574785	     -7.54053432	     -7.45734306	    -56.39453886	     -7.82256839	    -11.92710847	     33.70709608	     13.39144771	      7.47258931	     -3.18085526	    -13.50115529	      4.20364961	    -12.82412786	     -1.71291829	      6.75555924	     -4.44359917	     -0.35989361
      3.77500000	    -11.71620839	      4.36405286	     -0.54173369	     -0.68904383	     -0.01486965	     -0.26614162	     32.65316935	     -7.32823620	     -7.69955630	    -55.34369508	     -7.64070599	    -11.93550875	     33.67185695	     12.58214262	      7.33500397	     -3.02906994	    -13.07438354	      4.41399859	    -12.60959463	     -1.76083948	      6.55773087	     -4.21703201	     -0.69039458
      3.78000000	    -11.75795111	      4.21246541	     -0.44534667	     -0.68184313	     -0.01481620	     -0.26654153	     33.22910694	     -7.11210209	     -7.80398849	    -54.27579311	     -7.45748217	    -11.91933015	     33.62255859	     11.93651466	      7.23422733	     -2.98042668	    -12.65073725	      4.60293906	    -12.52521541	     -1.77189192	      6.53218681	     -4.03724838	     -0.85004929
